<?xml version="1.0" encoding="utf-8"?>
<!-- Generator: Adobe Illustrator 23.0.0, SVG Export Plug-In . SVG Version: 6.00 Build 0)  -->
<svg version="1.1" id="Layer_1" xmlns="http://www.w3.org/2000/svg" xmlns:xlink="http://www.w3.org/1999/xlink" x="0px" y="0px"
	 viewBox="0 0 1000 300" style="enable-background:new 0 0 1000 300;" xml:space="preserve">
<style type="text/css">
	.st0{fill:#FF0000;}
</style>
<g>
	<path class="st0" d="M685,140.6l5.7-38.2C678.3,95.7,661,90,641.1,90c-39.2,0-60.7,20.7-60.7,47.3c0,28.1,25.6,36.4,43.1,42.3
		c10.6,3.9,18.8,6.7,18.8,12.4c0,4.6-5.4,9-16.3,9c-15.8,0-37.7-9-51.9-21.7l-6.5,41.6c14.7,10.8,35.9,17.3,58.4,17.3
		c39,0,61.2-19.1,61.2-46.2c0-28.4-24-38-43.4-44.9c-10.8-3.9-18.6-6.2-18.6-11.6c0-4.6,5.4-8.3,16.5-8.3
		C657.9,127.5,674.7,134.7,685,140.6z"/>
	<path class="st0" d="M187.4,93.6l-2.6,12.4c-7.5-14.7-29.7-16.3-41.6-16.3c-37.2,0-69.7,35.6-69.7,84.4c0,39.2,23.8,64,53.5,64
		c16.5,0,30.7-3.9,42.3-17.6l-3.1,13.7h6.7h40l21.4-141h-47V93.6z M148.4,191.2c-16,0-28.1-12.4-28.1-28.1
		c0-15.5,12.4-28.1,28.1-28.1c15.5,0,27.9,12.7,27.9,28.1C176.6,178.9,163.9,191.2,148.4,191.2z"/>
	<path class="st0" d="M532.1,93.6h-4.9l-2.6,12.4c-7.5-14.7-29.7-16.3-41.6-16.3c-37.2,0-69.7,35.6-69.7,84.4
		c0,39.2,23.8,64,53.5,64c16.5,0,30.7-3.9,42.3-17.6l-3.1,13.7h6.7h40l21.4-141h-42.1V93.6z M488.5,191.2c-16,0-28.1-12.4-28.1-28.1
		c0-15.5,12.4-28.1,28.1-28.1c15.5,0,27.9,12.7,27.9,28.1C516.4,178.9,503.7,191.2,488.5,191.2z"/>
	<path class="st0" d="M884.4,93.6h-4.9l-2.6,12.4c-7.5-14.7-29.7-16.3-41.6-16.3c-37.2,0-69.7,35.6-69.7,84.4
		c0,39.2,23.8,64,53.5,64c16.5,0,30.7-3.9,42.3-17.6l-3.1,13.7h6.7h40l21.4-141h-42.1V93.6z M840.5,191.2c-16,0-28.1-12.4-28.1-28.1
		c0-15.5,12.4-28.1,28.1-28.1c15.5,0,27.9,12.7,27.9,28.1C868.3,178.9,856,191.2,840.5,191.2z"/>
	<path class="st0" d="M302.5,80.7c3-12.6-4.8-25.3-17.5-28.3c-12.6-3-25.3,4.8-28.3,17.5c-3,12.6,4.8,25.3,17.5,28.3
		S299.5,93.3,302.5,80.7z"/>
	<path class="st0" d="M279.6,108.1c-10.1,0-19.1-4.6-25-11.6l-20.9,138.1h47L301,100.4C295.1,105,287.6,108.1,279.6,108.1z"/>
	<path class="st0" d="M389.4,140.1c13,0,23.5-10.5,23.5-23.5s-10.5-23.5-23.5-23.5c-13,0-23.5,10.5-23.5,23.5
		S376.4,140.1,389.4,140.1z"/>
	<path class="st0" d="M356.6,116.6c0-9,3.6-17.3,9.6-23.2h-44.4l-21.4,141h47l15-99.2C358.9,130,356.6,123.6,356.6,116.6z"/>
	<path class="st0" d="M741,98.8c13,0,23.5-10.5,23.5-23.5c0-13-10.5-23.5-23.5-23.5c-13,0-23.5,10.5-23.5,23.5
		C717.5,88.3,728.1,98.8,741,98.8z"/>
	<path class="st0" d="M741,108.1c-10.3,0-19.6-4.9-25.8-12.4l-20.9,138.9h47l20.4-133.8C755.8,105.3,748.8,108.1,741,108.1z"/>
</g>
</svg>
